Patient4_TMGait_0pt5_02_right_23_EMG.mot
version=1
nRows=23
nColumns=33
inDegrees=no
endheader
time	1LAddLong	2LGlutMax	3LGlutMed	4LIliopsoas	5LSemiMemb	6LBicFemLong	7LRecFem	8LVastMed	9LVastLat	10LGasMed	11LTibAnt	12lTibPost	13LPeroneusLong	14LSol	15LExtDigLong	16LFlexDigLong	17RAddLong	18RGlutMax	19RGlutMed	20RIliopsoas	21RSemiMemb	22RBicFemLong	23RRecFem	24RVastMed	25RVastLat	26RGasMed	27RTibAnt	28RTibPost	29RPeroneusLong	30RSol	31RExtDigLong	32RFlexDigLong
30.85	-0.00412	-0.13733	-0.007935	0.014496	0.08728	-0.27206	0.012512	-0.00412	-0.002899	-0.020752	0.019379	-0.009918	-0.010529	-0.006866	0.075378	0.007782	0.012817	0.19592	0.20645	0.091858	0.024109	-0.016785	-0.031738	-0.03418	0.042725	-0.004425	0.095062	-0.00473	-0.19531	0.062561	-0.005035	-0.003204
30.851	-0.002289	-0.11368	0.06012	0.009155	0.030518	-0.41016	-0.045166	0.006714	0.015717	-0.021362	0.032654	-0.005798	0.020599	-0.002441	0.054321	0.002441	0.013275	0.13199	0.33569	0.006866	0.018921	-0.004425	-0.018158	-0.038147	0.036621	0.002441	0.11063	-0.007324	-0.16983	0.024567	-0.000916	-0.009155
30.852	-0.008087	-0.12787	0.072174	0.008392	-0.038605	-0.28336	-0.028534	0.011292	0.048523	-0.031738	0.031433	-0.00412	0.015259	0.003357	-0.046692	-0.005341	0.020294	0.14923	0.16235	0.035706	0.013428	-0.017242	-0.011902	-0.005646	0.037689	-0.001678	0.091858	-0.005951	-0.16983	0.020447	-0.00946	-0.00824
30.853	0.014801	-0.094147	0.030212	0.027924	-0.054474	-0.040894	0.030823	0.003052	0.090332	-0.016327	-0.019531	-0.008392	0.009003	0.030365	-0.045624	0.001984	0.016022	0.089417	-0.26749	0.070801	0.01236	-0.010071	-0.03006	0.004272	0.018005	0.005798	0.073242	-0.007935	-0.039673	-0.054474	-0.004578	-0.00473
30.854	0.011749	-0.080414	-0.003662	0.014191	-0.099945	0.048981	0.03952	0.001068	0.066223	-0.017853	-0.021515	-0.006104	0.023041	0.045929	-0.032196	-0.001373	0.017853	0.1181	-0.31097	0.028076	0.016632	-0.002136	-0.05188	-0.022278	0.001678	0.00824	0.066986	-0.001984	0.13489	0.020294	-0.004425	-0.017853
30.855	0.018158	-0.16678	0.012054	0.013733	-0.10422	0.050049	0.082855	-0.009003	0.007477	-0.011292	-0.010834	-0.005951	0.053253	0.018005	-0.10651	0.00473	0.026093	0.066071	-0.22461	-0.11093	0.011292	-0.026703	0.000153	0.011292	0.027618	0.006104	0.056915	-0.00824	0.2713	0.112	-0.001831	-0.014343
30.856	0.011292	-0.15289	0.062561	0.00946	-0.026703	0.13001	0.13977	-0.016479	-0.086212	0.001068	-0.012054	0	0.052643	0.003204	-0.16373	-0.007477	0.012054	-0.020599	0.11032	-0.11566	0.005493	-0.020142	0.008698	-0.009308	0.020294	-0.002899	0.097351	-0.001984	0.14908	0.10407	-0.008698	-0.018158
30.857	0.027771	-0.11398	0.063934	0.014038	0.004578	0.11322	0.12741	-0.007019	-0.22553	-0.011139	-0.015564	-0.000305	0.027924	0.006104	-0.12482	-0.007782	0.011139	-0.000153	0.2182	-0.054169	0.013275	-0.007477	0.001373	-0.005951	0.018768	-0.008545	0.086517	-0.002594	0.04364	0.036163	-0.003052	-0.014343
30.858	0.026245	-0.074768	0.080566	0.016174	-0.038757	0.12375	0.069733	0.003967	-0.27725	-0.002441	-0.010834	0.00473	-0.009308	0.033569	-0.064087	-0.00351	0.007172	0.011292	-0.011292	0.073242	0.009613	-0.02243	0.039978	-0.020294	0.03479	-0.002899	0.069733	-0.001221	-0.065308	-0.097351	-0.003662	-0.008545
30.859	0.027466	-0.085297	0.060577	-0.002899	0.052948	0.18158	0.055542	0.005646	-0.08728	-0.00824	-0.009918	-0.005035	-0.007935	0.029449	0.027618	0.001373	-0.002441	-0.034485	0.053558	0.112	0.00351	-0.0177	0.015717	-0.049591	0.013885	-0.008087	0.069427	-0.000305	-0.13138	-0.16144	-0.004578	-0.002747
30.86	0.020599	-0.070496	0.053558	0.001831	0.1506	0.15945	-0.014343	0.015411	0.12161	-0.029907	-0.003357	-0.002594	0.21469	0.030823	0.2063	0.002441	0.013428	-0.064697	-0.11887	0.20126	0.012054	-0.030975	0.000916	-0.002441	0.032654	-0.002289	0.060577	-0.008698	-0.16953	-0.14374	0.002747	-0.006714
30.861	0.01297	-0.071259	0.049438	0.01236	0.13016	0.14404	-0.030212	0.016937	0.22385	-0.027771	-0.000153	0.001526	-0.041351	0.048676	0.31387	0.010071	0.005341	-0.076141	-0.044403	0.17761	0.002747	-0.037537	0.049896	0.036621	0.041046	-0.002136	0.053864	-0.002594	-0.16754	-0.16495	-0.003967	-0.003357
30.862	-0.006866	-0.091553	0.023956	0.001984	-0.009155	0.22705	0.010223	0.007477	0.23529	-0.019073	-0.007019	0.005188	0.062103	0.07431	0.21576	0.003204	-0.019684	-0.058746	0.042114	0.028381	-0.011597	-0.023956	0.047607	0.015411	0.021057	0.000305	0.03067	-0.008392	-0.068359	-0.2153	-0.002441	-0.010071
30.863	-0.003967	-0.1796	-0.088348	0	-0.12116	0.25787	0.028992	0.005035	0.25894	-0.002441	0.002594	0.004272	0.21805	0.036469	0.03418	-0.000153	-0.024109	-0.04776	0.04303	0.022736	-0.025787	-0.028534	0.070648	-0.077972	0.0177	-0.007172	0.034943	0.000458	-0.028229	-0.12451	-0.002136	-0.003662
30.864	0.01236	-0.23148	-0.17471	0	-0.15564	0.025787	0.095367	0.00061	0.13596	0.012665	0.008698	0.000305	-0.012512	-0.05127	-0.085754	0.003967	-0.015411	-0.043182	0.02594	0.010681	-0.023041	-0.025482	0.057373	-0.082245	0.01709	-0.006104	0.046844	-0.007019	0.10391	-0.14374	0.004883	-0.002899
30.865	0.02121	-0.25604	-0.22888	0.003204	-0.058746	-0.002441	0.061951	-0.006714	-0.043945	-0.005035	-0.009003	-0.001831	-0.023956	-0.01709	-0.11795	-0.000153	0.014954	-0.005798	0.084686	0.015869	-0.023651	-0.029907	0.054321	-0.065613	0.017395	-0.000153	0.043945	-0.007172	0.1294	-0.092926	-0.005798	-0.007477
30.866	0.014038	-0.28854	-0.20477	0.004883	-0.042114	0.039978	0.050812	0.003357	-0.1416	-0.025635	0.010071	0.003052	0.015564	0.069122	-0.10651	0.006256	0.032959	0.040894	0.17075	-0.018921	-0.036774	-0.036011	0.023193	-0.093231	0.040436	-0.011292	0.040588	-0.001984	0.031433	-0.053558	-0.002899	-0.013733
30.867	-0.008545	-0.30792	-0.030212	0.016174	-0.054932	0.081024	0.016022	0.009308	-0.14191	-0.033264	0.025024	0.005798	0.62653	0.054932	-0.095367	0.006866	0.016479	0.022736	0.15259	-0.060577	-0.041504	-0.016174	-0.027008	-0.07019	0.040436	-0.007935	0.046997	-0.006104	-0.031281	-0.072327	-0.00473	-0.007477
30.868	-0.011292	-0.31052	0.088654	0.016327	-0.020599	-0.063171	0.017548	0.005341	-0.13962	-0.017395	0.042877	0.001984	0.019531	-0.002747	-0.008087	-0.000458	0.019226	0.037079	0.21774	-0.10681	-0.033264	-0.003815	-0.050964	-0.066376	0.061798	-0.007935	0.039368	-0.002441	0.054779	-0.044098	-0.008392	-0.011902
30.869	-0.017395	-0.29205	0.1445	0.010071	-0.11032	-0.16815	0.11276	-0.002899	-0.24292	-0.019989	0.041962	0.000305	-0.23972	0.033569	0.073547	-0.010376	0.002441	-0.019531	0.1828	-0.12894	-0.030365	-0.001678	-0.039825	-0.045319	0.060577	-0.005951	0.036316	-0.003662	0.058594	0.026093	-0.00473	-0.00946
30.87	-0.012512	-0.27847	0.14053	0.000305	-0.13489	-0.57342	0.095673	-0.004883	-0.27084	-0.031586	0.007172	-0.01236	-0.18478	0.1265	0.12161	0.001068	0.00885	-0.016479	0.112	-0.045013	-0.026245	-0.0354	-0.056763	-0.023804	0.041351	0.002747	0.02243	-0.003052	0.051422	0.022278	-0.004883	-0.009918
30.871	0.009155	-0.17197	0.061493	0.020599	-0.083466	-0.77438	0.031738	-0.006256	-0.1506	-0.018616	-0.032196	-0.003204	-0.25513	0.016785	0.047607	-0.002136	0.018463	-0.051575	0.14969	0.00946	-0.01709	-0.017853	-0.10208	-0.01297	0.077209	0.000153	-0.014648	-0.002136	0.087128	0.038452	-0.003967	-0.010071
30.872	0.035553	-0.031128	0.004425	-0.00824	-0.054626	-0.72464	0.048523	-0.017242	-0.002441	-0.020752	-0.098877	0.003052	-0.17563	-0.081177	-0.038147	0.001526	0.008545	-0.017395	0.22659	0.030518	-0.025787	-0.032349	-0.10773	0.023193	0.080872	0.006866	-0.027466	-0.00824	0.11459	0.048828	-0.005493	-0.006409
